<svg width="24" height="24" viewBox="0 0 24 24" fill="none" xmlns="http://www.w3.org/2000/svg">
  <!-- Serveurs en rack (gauche) -->
  <!-- Serveur 1 -->
  <rect x="1.5" y="7.5" width="5" height="2.5" rx="0.3" fill="#374151" stroke="#000000" stroke-width="0.6"/>
  <rect x="2" y="8.2" width="0.6" height="1.1" rx="0.15" fill="#4B5563"/>
  <rect x="2.8" y="8.2" width="0.6" height="1.1" rx="0.15" fill="#4B5563"/>
  <rect x="3.6" y="8.2" width="0.6" height="1.1" rx="0.15" fill="#4B5563"/>
  <circle cx="5" cy="8.5" r="0.25" fill="#10B981"/>
  <circle cx="5" cy="9.2" r="0.25" fill="#3B82F6"/>
  <circle cx="5.7" cy="8.5" r="0.25" fill="#EF4444"/>
  <circle cx="5.7" cy="9.2" r="0.25" fill="#10B981"/>
  
  <!-- Serveur 2 -->
  <rect x="1.5" y="11.0" width="5" height="2.5" rx="0.3" fill="#374151" stroke="#000000" stroke-width="0.6"/>
  <rect x="2" y="11.7" width="0.6" height="1.1" rx="0.15" fill="#4B5563"/>
  <rect x="2.8" y="11.7" width="0.6" height="1.1" rx="0.15" fill="#4B5563"/>
  <rect x="3.6" y="11.7" width="0.6" height="1.1" rx="0.15" fill="#4B5563"/>
  <circle cx="5" cy="12.0" r="0.25" fill="#10B981"/>
  <circle cx="5" cy="12.7" r="0.25" fill="#10B981"/>
  <circle cx="5.7" cy="12.0" r="0.25" fill="#EF4444"/>
  <circle cx="5.7" cy="12.7" r="0.25" fill="#3B82F6"/>
  
  <!-- Serveur 3 -->
  <rect x="1.5" y="14.5" width="5" height="2.5" rx="0.3" fill="#374151" stroke="#000000" stroke-width="0.6"/>
  <rect x="2" y="15.2" width="0.6" height="1.1" rx="0.15" fill="#4B5563"/>
  <rect x="2.8" y="15.2" width="0.6" height="1.1" rx="0.15" fill="#4B5563"/>
  <rect x="3.6" y="15.2" width="0.6" height="1.1" rx="0.15" fill="#4B5563"/>
  <circle cx="5" cy="15.5" r="0.25" fill="#10B981"/>
  <circle cx="5" cy="16.2" r="0.25" fill="#10B981"/>
  <circle cx="5.7" cy="15.5" r="0.25" fill="#EF4444"/>
  <circle cx="5.7" cy="16.2" r="0.25" fill="#10B981"/>
  
  <!-- Flux de transfert -->
  <polygon points="8,10.5 8,13.5 13,13.5 13,15 16,12 13,9 13,10.5" fill="#10B981"/>
  <text x="11.2" y="12.8" font-family="sans-serif" font-size="2.2" font-weight="600" fill="#fff" text-anchor="middle">DATA</text>
  
  <!-- Raspberry Pi (droite) -->
  <rect x="17" y="8" width="5.5" height="8" rx="0.5" fill="#16A34A" stroke="#15803D" stroke-width="0.8"/>
  <rect x="18" y="9" width="3.5" height="3.5" rx="0.3" fill="#1F2937" stroke="#374151" stroke-width="0.5"/>
  <line x1="18.5" y1="9.5" x2="21" y2="9.5" stroke="#6B7280" stroke-width="0.3"/>
  <line x1="18.5" y1="10.2" x2="21" y2="10.2" stroke="#6B7280" stroke-width="0.3"/>
  <line x1="18.5" y1="10.9" x2="21" y2="10.9" stroke="#6B7280" stroke-width="0.3"/>
  <line x1="18.5" y1="11.6" x2="21" y2="11.6" stroke="#6B7280" stroke-width="0.3"/>
  <g fill="#E5E7EB">
    <circle cx="18.2" cy="13.2" r="0.18"/>
    <circle cx="18.6" cy="13.2" r="0.18"/>
    <circle cx="19" cy="13.2" r="0.18"/>
    <circle cx="19.4" cy="13.2" r="0.18"/>
    <circle cx="19.8" cy="13.2" r="0.18"/>
    <circle cx="20.2" cy="13.2" r="0.18"/>
    <circle cx="20.6" cy="13.2" r="0.18"/>
    <circle cx="21" cy="13.2" r="0.18"/>
  </g>
  <circle cx="21.8" cy="9.2" r="0.35" fill="#EF4444"/>
  <circle cx="21.8" cy="10" r="0.35" fill="#10B981"/>
  <rect x="17.5" y="14.5" width="0.9" height="0.6" rx="0.15" fill="#9CA3AF"/>
  <rect x="21.1" y="14.5" width="0.9" height="0.6" rx="0.15" fill="#9CA3AF"/>
</svg>
